<?xml version="1.0" encoding="utf-8"?>
<!-- Generator: Adobe Illustrator 26.0.3, SVG Export Plug-In . SVG Version: 6.00 Build 0)  -->
<svg version="1.1" id="Layer_1" xmlns="http://www.w3.org/2000/svg" xmlns:xlink="http://www.w3.org/1999/xlink" x="0px" y="0px"
	 viewBox="0 0 512 512" style="enable-background:new 0 0 512 512;" xml:space="preserve">
<style type="text/css">
	.st0{fill:#FFFFFF;}
</style>
<g>
	<path class="st0" d="M128,439.8c36.3,25.3,80.4,40.2,128,40.2s91.7-14.8,128-40.2V432c0-44.2-35.8-80-80-80h-96
		c-44.2,0-80,35.8-80,80V439.8z M97.4,414.2c8.5-53.4,54.8-94.2,110.6-94.2h96c55.8,0,102.1,40.8,110.6,94.2
		C455,373.7,480,317.8,480,256c0-123.7-100.3-224-224-224S32,132.3,32,256C32,317.8,57,373.7,97.4,414.2z M256,512
		C114.6,512,0,397.4,0,256S114.6,0,256,0s256,114.6,256,256S397.4,512,256,512z"/>
	<path class="st0" d="M256,256c35.3,0,64-28.7,64-64s-28.7-64-64-64s-64,28.7-64,64S220.7,256,256,256z M256,288c-53,0-96-43-96-96
		s43-96,96-96s96,43,96,96S309,288,256,288z"/>
</g>
</svg>
